<?xml version="1.0" encoding="UTF-8" standalone="no"?>
<!-- Created with Inkscape (http://www.inkscape.org/) -->

<svg
   xmlns:dc="http://purl.org/dc/elements/1.1/"
   xmlns:cc="http://creativecommons.org/ns#"
   xmlns:rdf="http://www.w3.org/1999/02/22-rdf-syntax-ns#"
   xmlns:svg="http://www.w3.org/2000/svg"
   xmlns="http://www.w3.org/2000/svg"
   xmlns:sodipodi="http://sodipodi.sourceforge.net/DTD/sodipodi-0.dtd"
   xmlns:inkscape="http://www.inkscape.org/namespaces/inkscape"
   width="299.24374mm"
   height="162.9668mm"
   viewBox="0 0 299.24374 162.9668"
   version="1.1"
   id="svg882"
   inkscape:version="0.92.3 (2405546, 2018-03-11)"
   sodipodi:docname="words2.svg">
  <sodipodi:namedview
     id="base"
     pagecolor="#ffffff"
     bordercolor="#666666"
     borderopacity="1.0"
     inkscape:pageopacity="0.0"
     inkscape:pageshadow="2"
     inkscape:zoom="0.49497475"
     inkscape:cx="397.61747"
     inkscape:cy="573.65754"
     inkscape:document-units="mm"
     inkscape:current-layer="text1433"
     showgrid="false"
     inkscape:window-width="1920"
     inkscape:window-height="1001"
     inkscape:window-x="-9"
     inkscape:window-y="1076"
     inkscape:window-maximized="1"
     fit-margin-top="0"
     fit-margin-left="0"
     fit-margin-right="0"
     fit-margin-bottom="0" />
  <defs
     id="defs876" />
  <metadata
     id="metadata879">
    <rdf:RDF>
      <cc:Work
         rdf:about="">
        <dc:format>image/svg+xml</dc:format>
        <dc:type
           rdf:resource="http://purl.org/dc/dcmitype/StillImage" />
        <dc:title></dc:title>
      </cc:Work>
    </rdf:RDF>
  </metadata>
  <g
     id="layer1"
     inkscape:groupmode="layer"
     inkscape:label="Layer 1"
     transform="translate(351.22131,-94.620164)">
    <text
       id="text1429"
       y="57.363094"
       x="25.702381"
       style="font-style:normal;font-variant:normal;font-weight:normal;font-stretch:normal;font-size:50.79999924px;line-height:1.25;font-family:'Segoe Script';-inkscape-font-specification:'Segoe Script';letter-spacing:0px;word-spacing:0px;fill:#000000;fill-opacity:1;stroke:none;stroke-width:0.26458332"
       xml:space="preserve"><tspan
         style="font-size:50.79999924px;stroke-width:0.26458332"
         y="102.08973"
         x="25.702381"
         id="tspan1427"
         sodipodi:role="line" /></text>
    <g
       id="text1433"
       style="font-style:normal;font-variant:normal;font-weight:normal;font-stretch:normal;font-size:50.79999924px;line-height:1.25;font-family:'Segoe Script';-inkscape-font-specification:'Segoe Script';letter-spacing:0px;word-spacing:0px;fill:#000000;fill-opacity:1;stroke:none;stroke-width:0.26458332"
       aria-label="science,   photography,       travel ">
      <g
         aria-label="
science, 
   photography,
      travel"
         style="font-style:normal;font-variant:normal;font-weight:normal;font-stretch:normal;font-size:50.79999924px;line-height:1.25;font-family:serif;-inkscape-font-specification:serif;letter-spacing:0px;word-spacing:0px;fill:#000000;fill-opacity:1;stroke:none;stroke-width:0.07000434"
         id="text1608">
        <path
           d="m -337.42991,106.50161 v 7.73906 h -0.81855 q -0.94258,-3.64629 -2.43086,-4.96094 -1.46348,-1.31464 -3.74551,-1.31464 -1.73633,0 -2.80293,0.91777 -1.0666,0.91777 -1.0666,2.03398 0,1.38907 0.79375,2.38125 0.76894,1.017 3.12539,2.15801 l 3.62148,1.76113 q 5.03536,2.45567 5.03536,6.47403 0,3.10058 -2.35645,5.01054 -2.33164,1.88516 -5.23379,1.88516 -2.08359,0 -4.7625,-0.74414 -0.81855,-0.24805 -1.33945,-0.24805 -0.57051,0 -0.89297,0.64492 h -0.81855 v -8.11113 h 0.81855 q 0.69453,3.47266 2.6541,5.23379 1.95957,1.76113 4.39043,1.76113 1.71152,0 2.77813,-0.99218 1.0914,-1.017 1.0914,-2.43086 0,-1.71153 -1.21543,-2.87735 -1.19062,-1.16582 -4.7873,-2.95175 -3.59668,-1.78594 -4.71289,-3.22461 -1.11621,-1.41387 -1.11621,-3.57188 0,-2.80293 1.90996,-4.68808 1.93476,-1.88516 4.98574,-1.88516 1.33945,0 3.24941,0.57051 1.26504,0.37207 1.68672,0.37207 0.39688,0 0.62012,-0.17364 0.22324,-0.17363 0.5209,-0.76894 z"
           style="font-style:normal;font-variant:normal;font-weight:normal;font-stretch:normal;font-family:serif;-inkscape-font-specification:serif;stroke-width:0.07000434"
           id="path1628"
           inkscape:connector-curvature="0" />
        <path
           d="m -313.0717,121.2604 q -0.91778,4.48965 -3.59668,6.92051 -2.67891,2.40605 -5.92832,2.40605 -3.86954,0 -6.74688,-3.24941 -2.87734,-3.24942 -2.87734,-8.78086 0,-5.35782 3.175,-8.70645 3.1998,-3.34863 7.66465,-3.34863 3.34863,0 5.50664,1.78594 2.158,1.76113 2.158,3.67109 0,0.94258 -0.62011,1.53789 -0.59532,0.57051 -1.68672,0.57051 -1.46348,0 -2.20762,-0.94258 -0.42168,-0.5209 -0.57051,-1.98437 -0.12402,-1.46348 -0.99218,-2.23243 -0.86817,-0.74414 -2.40606,-0.74414 -2.48047,0 -3.99355,1.83555 -2.00918,2.43086 -2.00918,6.42441 0,4.06797 1.98437,7.19336 2.00918,3.10059 5.40742,3.10059 2.43086,0 4.36563,-1.66191 1.36426,-1.14102 2.6541,-4.14239 z"
           style="font-style:normal;font-variant:normal;font-weight:normal;font-stretch:normal;font-family:serif;-inkscape-font-specification:serif;stroke-width:0.07000434"
           id="path1630"
           inkscape:connector-curvature="0" />
        <path
           d="m -304.0676,94.620164 q 1.0418,0 1.76113,0.744141 0.74414,0.719336 0.74414,1.761133 0,1.041797 -0.74414,1.785937 -0.71933,0.744141 -1.76113,0.744141 -1.0418,0 -1.78594,-0.744141 -0.74414,-0.74414 -0.74414,-1.785937 0,-1.041797 0.71934,-1.761133 0.74414,-0.744141 1.81074,-0.744141 z m 2.05879,11.881446 v 18.25625 q 0,2.1332 0.29765,2.85254 0.32247,0.69453 0.91778,1.04179 0.62011,0.34727 2.23242,0.34727 v 0.89297 h -11.03809 v -0.89297 q 1.66192,0 2.23243,-0.32246 0.5705,-0.32246 0.89296,-1.0666 0.34727,-0.74414 0.34727,-2.85254 v -8.75606 q 0,-3.69589 -0.22324,-4.7873 -0.17364,-0.79375 -0.54571,-1.09141 -0.37207,-0.32246 -1.01699,-0.32246 -0.69453,0 -1.68672,0.37207 l -0.34726,-0.89297 6.84609,-2.77812 z"
           style="font-style:normal;font-variant:normal;font-weight:normal;font-stretch:normal;font-family:serif;-inkscape-font-specification:serif;stroke-width:0.07000434"
           id="path1632"
           inkscape:connector-curvature="0" />
        <path
           d="m -291.93811,115.72895 q -0.0248,5.06016 2.45566,7.9375 2.48047,2.87735 5.82911,2.87735 2.23242,0 3.86953,-1.21543 1.66191,-1.24024 2.77812,-4.2168 l 0.76895,0.49609 q -0.5209,3.39825 -3.02617,6.20118 -2.50528,2.77812 -6.27559,2.77812 -4.09277,0 -7.01973,-3.175 -2.90215,-3.1998 -2.90215,-8.58242 0,-5.8291 2.97657,-9.07852 3.00136,-3.27422 7.51582,-3.27422 3.81992,0 6.27558,2.53008 2.45567,2.50528 2.45567,6.72207 z m 0,-1.43867 h 10.51719 q -0.12403,-2.18281 -0.5209,-3.07578 -0.62012,-1.38906 -1.86035,-2.18281 -1.21543,-0.79375 -2.55489,-0.79375 -2.05878,0 -3.69589,1.6123 -1.61231,1.5875 -1.88516,4.44004 z"
           style="font-style:normal;font-variant:normal;font-weight:normal;font-stretch:normal;font-family:serif;-inkscape-font-specification:serif;stroke-width:0.07000434"
           id="path1634"
           inkscape:connector-curvature="0" />
        <path
           d="m -266.61252,111.31372 q 3.99355,-4.81211 7.61503,-4.81211 1.86036,0 3.19981,0.94258 1.33945,0.91777 2.1332,3.05097 0.54571,1.48829 0.54571,4.56407 v 9.69863 q 0,2.15801 0.34726,2.92695 0.27285,0.62012 0.86816,0.96738 0.62012,0.34727 2.25723,0.34727 v 0.89297 h -11.23652 v -0.89297 h 0.47129 q 1.5875,0 2.20761,-0.47129 0.64493,-0.49609 0.89297,-1.43867 0.0992,-0.37207 0.0992,-2.33164 v -9.30176 q 0,-3.10058 -0.81855,-4.48965 -0.79375,-1.41386 -2.70371,-1.41386 -2.95176,0 -5.87871,3.22461 v 11.98066 q 0,2.30684 0.27285,2.85254 0.34726,0.71933 0.94258,1.0666 0.62011,0.32246 2.48046,0.32246 v 0.89297 h -11.23652 v -0.89297 h 0.49609 q 1.73633,0 2.33164,-0.86816 0.62012,-0.89297 0.62012,-3.37344 v -8.43359 q 0,-4.09278 -0.19844,-4.98575 -0.17363,-0.89297 -0.5705,-1.21543 -0.37207,-0.32246 -1.017,-0.32246 -0.69453,0 -1.66191,0.37207 l -0.37207,-0.89297 6.84609,-2.77812 h 1.06661 z"
           style="font-style:normal;font-variant:normal;font-weight:normal;font-stretch:normal;font-family:serif;-inkscape-font-specification:serif;stroke-width:0.07000434"
           id="path1636"
           inkscape:connector-curvature="0" />
        <path
           d="m -228.53733,121.2604 q -0.91777,4.48965 -3.59668,6.92051 -2.6789,2.40605 -5.92832,2.40605 -3.86953,0 -6.74687,-3.24941 -2.87735,-3.24942 -2.87735,-8.78086 0,-5.35782 3.175,-8.70645 3.19981,-3.34863 7.66465,-3.34863 3.34863,0 5.50664,1.78594 2.15801,1.76113 2.15801,3.67109 0,0.94258 -0.62012,1.53789 -0.59531,0.57051 -1.68672,0.57051 -1.46347,0 -2.20761,-0.94258 -0.42168,-0.5209 -0.57051,-1.98437 -0.12402,-1.46348 -0.99219,-2.23243 -0.86816,-0.74414 -2.40605,-0.74414 -2.48047,0 -3.99356,1.83555 -2.00918,2.43086 -2.00918,6.42441 0,4.06797 1.98438,7.19336 2.00918,3.10059 5.40742,3.10059 2.43086,0 4.36562,-1.66191 1.36426,-1.14102 2.65411,-4.14239 z"
           style="font-style:normal;font-variant:normal;font-weight:normal;font-stretch:normal;font-family:serif;-inkscape-font-specification:serif;stroke-width:0.07000434"
           id="path1638"
           inkscape:connector-curvature="0" />
        <path
           d="m -221.4928,115.72895 q -0.0248,5.06016 2.45566,7.9375 2.48047,2.87735 5.8291,2.87735 2.23243,0 3.86954,-1.21543 1.66191,-1.24024 2.77812,-4.2168 l 0.76895,0.49609 q -0.5209,3.39825 -3.02618,6.20118 -2.50527,2.77812 -6.27558,2.77812 -4.09278,0 -7.01973,-3.175 -2.90215,-3.1998 -2.90215,-8.58242 0,-5.8291 2.97657,-9.07852 3.00136,-3.27422 7.51582,-3.27422 3.81992,0 6.27558,2.53008 2.45567,2.50528 2.45567,6.72207 z m 0,-1.43867 h 10.51719 q -0.12403,-2.18281 -0.5209,-3.07578 -0.62012,-1.38906 -1.86035,-2.18281 -1.21543,-0.79375 -2.55489,-0.79375 -2.05879,0 -3.69589,1.6123 -1.61231,1.5875 -1.88516,4.44004 z"
           style="font-style:normal;font-variant:normal;font-weight:normal;font-stretch:normal;font-family:serif;-inkscape-font-specification:serif;stroke-width:0.07000434"
           id="path1640"
           inkscape:connector-curvature="0" />
        <path
           d="m -201.64905,138.35083 v -1.09141 q 2.55488,-0.84336 3.94395,-2.6293 1.41386,-1.76113 1.41386,-3.7455 0,-0.47129 -0.22324,-0.79375 -0.17363,-0.22325 -0.34726,-0.22325 -0.27285,0 -1.19063,0.4961 -0.44648,0.22324 -0.94258,0.22324 -1.21543,0 -1.93476,-0.71934 -0.71934,-0.71933 -0.71934,-1.98437 0,-1.21543 0.91778,-2.08359 0.94257,-0.86817 2.28203,-0.86817 1.63711,0 2.90215,1.43867 1.28984,1.41387 1.28984,3.77032 0,2.55488 -1.78594,4.73769 -1.76113,2.20762 -5.60586,3.47266 z"
           style="font-style:normal;font-variant:normal;font-weight:normal;font-stretch:normal;font-family:serif;-inkscape-font-specification:serif;stroke-width:0.07000434"
           id="path1642"
           inkscape:connector-curvature="0" />
        <path
           d="m -315.65139,172.92856 6.99492,-2.82773 h 0.94258 v 5.3082 q 1.76113,-3.00137 3.52226,-4.19199 1.78594,-1.21543 3.74551,-1.21543 3.42305,0 5.70508,2.6789 2.80293,3.27422 2.80293,8.53282 0,5.87871 -3.37344,9.72343 -2.77812,3.1502 -6.99492,3.1502 -1.83555,0 -3.175,-0.5209 -0.99219,-0.37207 -2.23242,-1.48828 v 6.92051 q 0,2.33164 0.27285,2.95176 0.29765,0.64492 0.99219,1.01699 0.71933,0.37207 2.57968,0.37207 v 0.91777 h -11.90625 v -0.91777 h 0.62012 q 1.36426,0.0248 2.33164,-0.5209 0.47129,-0.27285 0.71934,-0.89297 0.27285,-0.59531 0.27285,-3.07578 V 177.3686 q 0,-2.20762 -0.19844,-2.80293 -0.19844,-0.59531 -0.64492,-0.89297 -0.42168,-0.29765 -1.16582,-0.29765 -0.59531,0 -1.51309,0.34726 z m 7.9375,3.94395 v 8.4832 q 0,2.75332 0.22324,3.62148 0.34726,1.43868 1.68672,2.53008 1.36426,1.09141 3.42304,1.09141 2.48047,0 4.01836,-1.93477 2.00918,-2.53008 2.00918,-7.11894 0,-5.20899 -2.28203,-8.01192 -1.5875,-1.93476 -3.77031,-1.93476 -1.19063,0 -2.35645,0.59531 -0.89296,0.44648 -2.95175,2.67891 z"
           style="font-style:normal;font-variant:normal;font-weight:normal;font-stretch:normal;font-family:serif;-inkscape-font-specification:serif;stroke-width:0.07000434"
           id="path1644"
           inkscape:connector-curvature="0" />
        <path
           d="m -281.94182,158.12016 v 16.61914 q 2.75332,-3.02617 4.36562,-3.86953 1.61231,-0.86816 3.22461,-0.86816 1.93477,0 3.32383,1.0666 1.38906,1.0666 2.05879,3.34863 0.47129,1.5875 0.47129,5.8043 v 8.03672 q 0,2.15801 0.34726,2.95176 0.24805,0.59531 0.84336,0.94257 0.59532,0.34727 2.18282,0.34727 v 0.89297 h -11.16211 v -0.89297 h 0.5209 q 1.5875,0 2.20761,-0.47129 0.62012,-0.49609 0.86817,-1.43867 0.0744,-0.39688 0.0744,-2.33164 v -8.03672 q 0,-3.7207 -0.39687,-4.88652 -0.37207,-1.16582 -1.21543,-1.73633 -0.84336,-0.59531 -2.03399,-0.59531 -1.21543,0 -2.53008,0.64492 -1.31464,0.64492 -3.15019,2.60449 v 12.00547 q 0,2.33164 0.24805,2.90215 0.27285,0.5705 0.96738,0.96738 0.71933,0.37207 2.45566,0.37207 v 0.89297 h -11.26133 v -0.89297 q 1.51309,0 2.38125,-0.47129 0.4961,-0.24805 0.79375,-0.94258 0.29766,-0.69453 0.29766,-2.82773 v -20.56309 q 0,-3.89433 -0.19844,-4.7873 -0.17363,-0.89297 -0.5705,-1.21543 -0.37208,-0.32246 -1.017,-0.32246 -0.5209,0 -1.68672,0.39687 l -0.34726,-0.86816 6.79648,-2.77813 z"
           style="font-style:normal;font-variant:normal;font-weight:normal;font-stretch:normal;font-family:serif;-inkscape-font-specification:serif;stroke-width:0.07000434"
           id="path1646"
           inkscape:connector-curvature="0" />
        <path
           d="m -252.10178,170.00161 q 5.15937,0 8.28476,3.91914 2.65411,3.34863 2.65411,7.68945 0,3.05098 -1.46348,6.17637 -1.46348,3.12539 -4.04316,4.71289 -2.55489,1.5875 -5.70508,1.5875 -5.13457,0 -8.16074,-4.09277 -2.55489,-3.44786 -2.55489,-7.73907 0,-3.12539 1.53789,-6.20117 1.5627,-3.10058 4.09278,-4.56406 2.53007,-1.48828 5.35781,-1.48828 z m -0.76895,1.6123 q -1.31464,0 -2.6541,0.79375 -1.31465,0.76895 -2.1332,2.72852 -0.81856,1.95957 -0.81856,5.03535 0,4.96094 1.95957,8.55762 1.98438,3.59668 5.20899,3.59668 2.40605,0 3.96875,-1.98438 1.56269,-1.98437 1.56269,-6.82129 0,-6.05234 -2.60449,-9.525 -1.76113,-2.38125 -4.48965,-2.38125 z"
           style="font-style:normal;font-variant:normal;font-weight:normal;font-stretch:normal;font-family:serif;-inkscape-font-specification:serif;stroke-width:0.07000434"
           id="path1648"
           inkscape:connector-curvature="0" />
        <path
           d="m -231.21624,163.20512 v 7.46621 h 5.3082 v 1.73633 h -5.3082 v 14.73399 q 0,2.20761 0.62012,2.97656 0.64492,0.76894 1.63711,0.76894 0.81855,0 1.5875,-0.49609 0.76894,-0.5209 1.19062,-1.51308 h 0.96738 q -0.86816,2.43085 -2.45566,3.67109 -1.5875,1.21543 -3.27422,1.21543 -1.14101,0 -2.23242,-0.62012 -1.09141,-0.64492 -1.6123,-1.81074 -0.5209,-1.19063 -0.5209,-3.64629 v -15.27969 h -3.59668 v -0.81855 q 1.36425,-0.5457 2.77812,-1.83555 1.43867,-1.31465 2.55488,-3.10058 0.57051,-0.94258 1.5875,-3.44786 z"
           style="font-style:normal;font-variant:normal;font-weight:normal;font-stretch:normal;font-family:serif;-inkscape-font-specification:serif;stroke-width:0.07000434"
           id="path1650"
           inkscape:connector-curvature="0" />
        <path
           d="m -212.61271,170.00161 q 5.15937,0 8.28476,3.91914 2.6541,3.34863 2.6541,7.68945 0,3.05098 -1.46347,6.17637 -1.46348,3.12539 -4.04317,4.71289 -2.55488,1.5875 -5.70508,1.5875 -5.13457,0 -8.16074,-4.09277 -2.55488,-3.44786 -2.55488,-7.73907 0,-3.12539 1.53789,-6.20117 1.5627,-3.10058 4.09277,-4.56406 2.53008,-1.48828 5.35782,-1.48828 z m -0.76895,1.6123 q -1.31465,0 -2.6541,0.79375 -1.31465,0.76895 -2.1332,2.72852 -0.81856,1.95957 -0.81856,5.03535 0,4.96094 1.95957,8.55762 1.98438,3.59668 5.20899,3.59668 2.40605,0 3.96875,-1.98438 1.56269,-1.98437 1.56269,-6.82129 0,-6.05234 -2.60449,-9.525 -1.76113,-2.38125 -4.48965,-2.38125 z"
           style="font-style:normal;font-variant:normal;font-weight:normal;font-stretch:normal;font-family:serif;-inkscape-font-specification:serif;stroke-width:0.07000434"
           id="path1652"
           inkscape:connector-curvature="0" />
        <path
           d="m -192.24807,185.10766 q -2.0836,-1.01699 -3.19981,-2.82773 -1.11621,-1.83555 -1.11621,-4.04317 0,-3.37343 2.53008,-5.80429 2.55488,-2.43086 6.52363,-2.43086 3.24942,0 5.63067,1.5875 h 4.81211 q 1.0666,0 1.24023,0.0744 0.17363,0.0496 0.24805,0.19844 0.14883,0.22324 0.14883,0.79375 0,0.64492 -0.12403,0.89297 -0.0744,0.12402 -0.27285,0.19844 -0.17363,0.0744 -1.24023,0.0744 h -2.95176 q 1.38906,1.78594 1.38906,4.56406 0,3.175 -2.43086,5.43223 -2.43086,2.25723 -6.52363,2.25723 -1.68672,0 -3.44785,-0.4961 -1.09141,0.94258 -1.48828,1.66192 -0.37207,0.69453 -0.37207,1.19062 0,0.42168 0.39687,0.81856 0.42168,0.39687 1.61231,0.5705 0.69453,0.0992 3.47265,0.17364 5.10977,0.12402 6.62285,0.34726 2.30684,0.32246 3.6711,1.71153 1.38906,1.38906 1.38906,3.42304 0,2.80293 -2.6293,5.2586 -3.86953,3.62148 -10.0955,3.62148 -4.78731,0 -8.08633,-2.15801 -1.86035,-1.24023 -1.86035,-2.57969 0,-0.59531 0.27285,-1.19062 0.42168,-0.91777 1.73633,-2.55488 0.17363,-0.22325 2.53007,-2.67891 -1.28984,-0.76894 -1.83554,-1.36426 -0.5209,-0.62011 -0.5209,-1.38906 0,-0.86816 0.69453,-2.03398 0.71934,-1.16582 3.27422,-3.29903 z m 4.31601,-13.91543 q -1.83554,0 -3.07578,1.46348 -1.24023,1.46348 -1.24023,4.48965 0,3.91914 1.68672,6.07715 1.28984,1.63711 3.27422,1.63711 1.88515,0 3.10058,-1.41387 1.21543,-1.41387 1.21543,-4.44004 0,-3.94395 -1.71152,-6.17637 -1.26504,-1.63711 -3.24942,-1.63711 z m -4.56406,22.2002 q -1.16582,1.26504 -1.76113,2.35644 -0.59531,1.09141 -0.59531,2.00918 0,1.19063 1.43867,2.0836 2.48047,1.53789 7.16855,1.53789 4.46485,0 6.57324,-1.5875 2.13321,-1.5627 2.13321,-3.34864 0,-1.28984 -1.26504,-1.83554 -1.28984,-0.54571 -5.10977,-0.64492 -5.58105,-0.14883 -8.58242,-0.57051 z"
           style="font-style:normal;font-variant:normal;font-weight:normal;font-stretch:normal;font-family:serif;-inkscape-font-specification:serif;stroke-width:0.07000434"
           id="path1654"
           inkscape:connector-curvature="0" />
        <path
           d="m -166.27757,170.00161 v 5.10976 q 2.85254,-5.10976 5.85391,-5.10976 1.36425,0 2.25722,0.84336 0.89297,0.81855 0.89297,1.90996 0,0.96738 -0.64492,1.63711 -0.64492,0.66972 -1.53789,0.66972 -0.86816,0 -1.95957,-0.84335 -1.0666,-0.86817 -1.5875,-0.86817 -0.44649,0 -0.96738,0.49609 -1.11621,1.017 -2.30684,3.34864 v 10.88926 q 0,1.88515 0.47129,2.85253 0.32246,0.66973 1.14101,1.11622 0.81856,0.44648 2.35645,0.44648 v 0.89297 h -11.6334 v -0.89297 q 1.73633,0 2.57969,-0.5457 0.62012,-0.39688 0.86816,-1.26504 0.12403,-0.42168 0.12403,-2.40606 V 179.477 q 0,-3.96875 -0.17364,-4.71289 -0.14882,-0.76895 -0.59531,-1.11621 -0.42168,-0.34727 -1.0666,-0.34727 -0.76895,0 -1.73633,0.37207 l -0.24804,-0.89297 6.87089,-2.77812 z"
           style="font-style:normal;font-variant:normal;font-weight:normal;font-stretch:normal;font-family:serif;-inkscape-font-specification:serif;stroke-width:0.07000434"
           id="path1656"
           inkscape:connector-curvature="0" />
        <path
           d="m -143.08518,190.11821 q -3.49746,2.70371 -4.39043,3.12539 -1.33945,0.62012 -2.85254,0.62012 -2.35644,0 -3.89433,-1.61231 -1.51309,-1.6123 -1.51309,-4.2416 0,-1.66191 0.74414,-2.87734 1.01699,-1.68672 3.52227,-3.175 2.53008,-1.48828 8.38398,-3.62149 v -0.89297 q 0,-3.39824 -1.0914,-4.66328 -1.06661,-1.26504 -3.12539,-1.26504 -1.5627,0 -2.48047,0.84336 -0.94258,0.84336 -0.94258,1.93477 l 0.0496,1.43867 q 0,1.14102 -0.59531,1.76113 -0.57051,0.62012 -1.51309,0.62012 -0.91777,0 -1.51309,-0.64492 -0.5705,-0.64492 -0.5705,-1.76113 0,-2.13321 2.18281,-3.91914 2.18281,-1.78594 6.12676,-1.78594 3.02617,0 4.96093,1.01699 1.46348,0.76895 2.15801,2.40606 0.44649,1.0666 0.44649,4.36562 v 7.71426 q 0,3.24941 0.12402,3.99355 0.12402,0.71934 0.39687,0.96739 0.29766,0.24804 0.66973,0.24804 0.39688,0 0.69453,-0.17363 0.5209,-0.32246 2.00918,-1.81074 v 1.38906 q -2.77812,3.7207 -5.3082,3.7207 -1.21543,0 -1.93477,-0.84336 -0.71933,-0.84336 -0.74414,-2.87734 z m 0,-1.6123 v -8.65684 q -3.74551,1.48828 -4.83691,2.1084 -1.95957,1.0914 -2.80293,2.28203 -0.84336,1.19062 -0.84336,2.60449 0,1.78594 1.0666,2.97656 1.0666,1.16582 2.45566,1.16582 1.88516,0 4.96094,-2.48046 z"
           style="font-style:normal;font-variant:normal;font-weight:normal;font-stretch:normal;font-family:serif;-inkscape-font-specification:serif;stroke-width:0.07000434"
           id="path1658"
           inkscape:connector-curvature="0" />
        <path
           d="m -135.07328,172.92856 6.99493,-2.82773 h 0.94257 v 5.3082 q 1.76114,-3.00137 3.52227,-4.19199 1.78594,-1.21543 3.74551,-1.21543 3.42304,0 5.70508,2.6789 2.80293,3.27422 2.80293,8.53282 0,5.87871 -3.37344,9.72343 -2.77813,3.1502 -6.99492,3.1502 -1.83555,0 -3.175,-0.5209 -0.99219,-0.37207 -2.23243,-1.48828 v 6.92051 q 0,2.33164 0.27286,2.95176 0.29765,0.64492 0.99218,1.01699 0.71934,0.37207 2.57969,0.37207 v 0.91777 h -11.90625 v -0.91777 h 0.62012 q 1.36426,0.0248 2.33164,-0.5209 0.47129,-0.27285 0.71933,-0.89297 0.27286,-0.59531 0.27286,-3.07578 V 177.3686 q 0,-2.20762 -0.19844,-2.80293 -0.19844,-0.59531 -0.64492,-0.89297 -0.42168,-0.29765 -1.16582,-0.29765 -0.59532,0 -1.51309,0.34726 z m 7.9375,3.94395 v 8.4832 q 0,2.75332 0.22325,3.62148 0.34726,1.43868 1.68672,2.53008 1.36425,1.09141 3.42304,1.09141 2.48047,0 4.01836,-1.93477 2.00918,-2.53008 2.00918,-7.11894 0,-5.20899 -2.28203,-8.01192 -1.5875,-1.93476 -3.77031,-1.93476 -1.19063,0 -2.35645,0.59531 -0.89297,0.44648 -2.95176,2.67891 z"
           style="font-style:normal;font-variant:normal;font-weight:normal;font-stretch:normal;font-family:serif;-inkscape-font-specification:serif;stroke-width:0.07000434"
           id="path1660"
           inkscape:connector-curvature="0" />
        <path
           d="m -101.3637,158.12016 v 16.61914 q 2.753324,-3.02617 4.365629,-3.86953 1.612304,-0.86816 3.224609,-0.86816 1.934765,0 3.323828,1.0666 1.389062,1.0666 2.058789,3.34863 0.471289,1.5875 0.471289,5.8043 v 8.03672 q 0,2.15801 0.347266,2.95176 0.248047,0.59531 0.843359,0.94257 0.595312,0.34727 2.182812,0.34727 v 0.89297 h -11.162109 v -0.89297 h 0.520899 q 1.5875,0 2.207617,-0.47129 0.620117,-0.49609 0.868164,-1.43867 0.07441,-0.39688 0.07441,-2.33164 v -8.03672 q 0,-3.7207 -0.396875,-4.88652 -0.37207,-1.16582 -1.21543,-1.73633 -0.843359,-0.59531 -2.033984,-0.59531 -1.21543,0 -2.530078,0.64492 -1.314649,0.64492 -3.150195,2.60449 v 12.00547 q 0,2.33164 0.24805,2.90215 0.27285,0.5705 0.96738,0.96738 0.719335,0.37207 2.455663,0.37207 v 0.89297 h -11.261323 v -0.89297 q 1.51309,0 2.38125,-0.47129 0.49609,-0.24805 0.79375,-0.94258 0.29766,-0.69453 0.29766,-2.82773 v -20.56309 q 0,-3.89433 -0.19844,-4.7873 -0.17363,-0.89297 -0.57051,-1.21543 -0.37207,-0.32246 -1.01699,-0.32246 -0.5209,0 -1.68672,0.39687 l -0.34727,-0.86816 6.79649,-2.77813 z"
           style="font-style:normal;font-variant:normal;font-weight:normal;font-stretch:normal;font-family:serif;-inkscape-font-specification:serif;stroke-width:0.07000434"
           id="path1662"
           inkscape:connector-curvature="0" />
        <path
           d="m -83.926007,170.67133 h 10.591601 v 0.91778 h -0.520898 q -1.116211,0 -1.686719,0.49609 -0.545703,0.47129 -0.545703,1.19063 0,0.96738 0.818555,2.6789 l 5.531445,11.45977 5.084961,-12.55117 q 0.421679,-1.017 0.421679,-2.00918 0,-0.44649 -0.173632,-0.66973 -0.198438,-0.27285 -0.620117,-0.42168 -0.42168,-0.17363 -1.488282,-0.17363 v -0.91778 h 7.391797 v 0.91778 q -0.917773,0.0992 -1.413867,0.39687 -0.496094,0.29766 -1.091406,1.11621 -0.223243,0.34727 -0.84336,1.90997 l -9.252148,22.67148 q -1.339453,3.29902 -3.522266,4.98574 -2.158007,1.68672 -4.167187,1.68672 -1.463477,0 -2.406055,-0.84336 -0.942578,-0.84336 -0.942578,-1.93476 0,-1.0418 0.669727,-1.68672 0.694531,-0.62012 1.885156,-0.62012 0.818555,0 2.232422,0.5457 0.992187,0.37207 1.240234,0.37207 0.744141,0 1.612305,-0.76894 0.892969,-0.76895 1.785937,-2.97657 l 1.612305,-3.94394 -8.160742,-17.14004 q -0.37207,-0.76894 -1.190625,-1.90996 -0.620117,-0.86816 -1.016992,-1.16582 -0.570508,-0.39688 -1.835547,-0.69453 z"
           style="font-style:normal;font-variant:normal;font-weight:normal;font-stretch:normal;font-family:serif;-inkscape-font-specification:serif;stroke-width:0.07000434"
           id="path1664"
           inkscape:connector-curvature="0" />
        <path
           d="m -59.369354,201.85083 v -1.09141 q 2.554882,-0.84336 3.943945,-2.6293 1.413867,-1.76113 1.413867,-3.7455 0,-0.47129 -0.223242,-0.79375 -0.173633,-0.22325 -0.347266,-0.22325 -0.272851,0 -1.190625,0.4961 -0.446484,0.22324 -0.942578,0.22324 -1.215429,0 -1.934765,-0.71934 -0.719336,-0.71933 -0.719336,-1.98437 0,-1.21543 0.917773,-2.08359 0.942578,-0.86817 2.282031,-0.86817 1.63711,0 2.902149,1.43867 1.289843,1.41387 1.289843,3.77032 0,2.55488 -1.785937,4.73769 -1.761133,2.20762 -5.605859,3.47266 z"
           style="font-style:normal;font-variant:normal;font-weight:normal;font-stretch:normal;font-family:serif;-inkscape-font-specification:serif;stroke-width:0.07000434"
           id="path1666"
           inkscape:connector-curvature="0" />
        <path
           d="m -269.31624,226.70512 v 7.46621 h 5.3082 v 1.73633 h -5.3082 v 14.73399 q 0,2.20761 0.62012,2.97656 0.64492,0.76894 1.63711,0.76894 0.81855,0 1.5875,-0.49609 0.76894,-0.5209 1.19062,-1.51309 h 0.96739 q -0.86817,2.43086 -2.45567,3.6711 -1.5875,1.21543 -3.27422,1.21543 -1.14101,0 -2.23242,-0.62012 -1.09141,-0.64492 -1.6123,-1.81074 -0.5209,-1.19063 -0.5209,-3.64629 v -15.27969 h -3.59668 v -0.81855 q 1.36426,-0.54571 2.77812,-1.83555 1.43868,-1.31465 2.55489,-3.10059 0.5705,-0.94257 1.5875,-3.44785 z"
           style="font-style:normal;font-variant:normal;font-weight:normal;font-stretch:normal;font-family:serif;-inkscape-font-specification:serif;stroke-width:0.07000434"
           id="path1668"
           inkscape:connector-curvature="0" />
        <path
           d="m -255.17756,233.50161 v 5.10976 q 2.85254,-5.10976 5.8539,-5.10976 1.36426,0 2.25723,0.84336 0.89297,0.81855 0.89297,1.90996 0,0.96738 -0.64492,1.63711 -0.64493,0.66972 -1.53789,0.66972 -0.86817,0 -1.95957,-0.84336 -1.06661,-0.86816 -1.5875,-0.86816 -0.44649,0 -0.96739,0.49609 -1.11621,1.017 -2.30683,3.34864 v 10.88925 q 0,1.88516 0.47129,2.85254 0.32246,0.66973 1.14101,1.11621 0.81856,0.44649 2.35645,0.44649 v 0.89297 h -11.6334 v -0.89297 q 1.73633,0 2.57969,-0.5457 0.62011,-0.39688 0.86816,-1.26504 0.12402,-0.42168 0.12402,-2.40606 V 242.977 q 0,-3.96875 -0.17363,-4.71289 -0.14883,-0.76895 -0.59531,-1.11621 -0.42168,-0.34727 -1.0666,-0.34727 -0.76895,0 -1.73633,0.37207 l -0.24805,-0.89297 6.8709,-2.77812 z"
           style="font-style:normal;font-variant:normal;font-weight:normal;font-stretch:normal;font-family:serif;-inkscape-font-specification:serif;stroke-width:0.07000434"
           id="path1670"
           inkscape:connector-curvature="0" />
        <path
           d="m -231.98518,253.61821 q -3.49746,2.70371 -4.39043,3.12539 -1.33945,0.62012 -2.85254,0.62012 -2.35644,0 -3.89433,-1.61231 -1.51309,-1.6123 -1.51309,-4.2416 0,-1.66191 0.74414,-2.87734 1.01699,-1.68672 3.52227,-3.175 2.53007,-1.48828 8.38398,-3.62149 v -0.89297 q 0,-3.39824 -1.09141,-4.66328 -1.0666,-1.26504 -3.12539,-1.26504 -1.56269,0 -2.48046,0.84336 -0.94258,0.84336 -0.94258,1.93477 l 0.0496,1.43867 q 0,1.14102 -0.59532,1.76113 -0.5705,0.62012 -1.51308,0.62012 -0.91778,0 -1.51309,-0.64492 -0.57051,-0.64492 -0.57051,-1.76113 0,-2.13321 2.18282,-3.91915 2.18281,-1.78593 6.12675,-1.78593 3.02618,0 4.96094,1.01699 1.46348,0.76894 2.15801,2.40605 0.44648,1.06661 0.44648,4.36563 v 7.71426 q 0,3.24941 0.12403,3.99355 0.12402,0.71934 0.39687,0.96738 0.29766,0.24805 0.66973,0.24805 0.39687,0 0.69453,-0.17363 0.5209,-0.32246 2.00918,-1.81074 v 1.38906 q -2.77813,3.7207 -5.3082,3.7207 -1.21543,0 -1.93477,-0.84336 -0.71933,-0.84336 -0.74414,-2.87734 z m 0,-1.61231 v -8.65683 q -3.74551,1.48828 -4.83691,2.1084 -1.95957,1.0914 -2.80293,2.28203 -0.84336,1.19062 -0.84336,2.60449 0,1.78594 1.0666,2.97656 1.0666,1.16582 2.45566,1.16582 1.88516,0 4.96094,-2.48047 z"
           style="font-style:normal;font-variant:normal;font-weight:normal;font-stretch:normal;font-family:serif;-inkscape-font-specification:serif;stroke-width:0.07000434"
           id="path1672"
           inkscape:connector-curvature="0" />
        <path
           d="m -223.50198,234.17133 h 10.69082 v 0.91778 h -0.69453 q -0.96738,0 -1.48828,0.47129 -0.4961,0.47129 -0.4961,1.26504 0,0.86816 0.5209,2.05878 l 5.2834,12.55118 5.3082,-13.02246 q 0.57051,-1.38907 0.57051,-2.1084 0,-0.34727 -0.19844,-0.57051 -0.27285,-0.37207 -0.69453,-0.49609 -0.42168,-0.14883 -1.71152,-0.14883 v -0.91778 h 7.4166 v 0.91778 q -1.28984,0.0992 -1.78594,0.5209 -0.86816,0.74414 -1.56269,2.48046 l -8.06153,19.49649 h -1.01699 l -8.11113,-19.17402 q -0.5457,-1.33946 -1.0418,-1.90997 -0.49609,-0.59531 -1.26504,-0.99218 -0.42168,-0.22325 -1.66191,-0.42168 z"
           style="font-style:normal;font-variant:normal;font-weight:normal;font-stretch:normal;font-family:serif;-inkscape-font-specification:serif;stroke-width:0.07000434"
           id="path1674"
           inkscape:connector-curvature="0" />
        <path
           d="m -193.11624,242.72895 q -0.0248,5.06016 2.45566,7.9375 2.48047,2.87734 5.8291,2.87734 2.23242,0 3.86953,-1.21542 1.66192,-1.24024 2.77813,-4.2168 l 0.76894,0.49609 q -0.5209,3.39824 -3.02617,6.20117 -2.50527,2.77813 -6.27559,2.77813 -4.09277,0 -7.01972,-3.175 -2.90215,-3.19981 -2.90215,-8.58242 0,-5.8291 2.97656,-9.07852 3.00137,-3.27422 7.51582,-3.27422 3.81992,0 6.27559,2.53008 2.45566,2.50527 2.45566,6.72207 z m 0,-1.43867 h 10.51718 q -0.12402,-2.18281 -0.5209,-3.07578 -0.62011,-1.38906 -1.86035,-2.18281 -1.21543,-0.79375 -2.55488,-0.79375 -2.05879,0 -3.6959,1.6123 -1.6123,1.5875 -1.88515,4.44004 z"
           style="font-style:normal;font-variant:normal;font-weight:normal;font-stretch:normal;font-family:serif;-inkscape-font-specification:serif;stroke-width:0.07000434"
           id="path1676"
           inkscape:connector-curvature="0" />
        <path
           d="m -166.60003,221.62016 v 30.1377 q 0,2.1332 0.29766,2.82773 0.32246,0.69453 0.96738,1.0666 0.64492,0.34727 2.40605,0.34727 v 0.89297 h -11.1373 v -0.89297 q 1.56269,0 2.1332,-0.32246 0.57051,-0.32246 0.89297,-1.0666 0.32246,-0.74414 0.32246,-2.85254 v -20.6375 q 0,-3.84473 -0.17363,-4.71289 -0.17363,-0.89297 -0.57051,-1.21543 -0.37207,-0.32246 -0.96738,-0.32246 -0.64492,0 -1.63711,0.39687 l -0.42168,-0.86816 6.77168,-2.77813 z"
           style="font-style:normal;font-variant:normal;font-weight:normal;font-stretch:normal;font-family:serif;-inkscape-font-specification:serif;stroke-width:0.07000434"
           id="path1678"
           inkscape:connector-curvature="0" />
      </g>
      <flowRoot
         xml:space="preserve"
         id="flowRoot1620"
         style="font-style:normal;font-variant:normal;font-weight:normal;font-stretch:normal;font-size:192px;line-height:1.25;font-family:sans-serif;-inkscape-font-specification:sans-serif;letter-spacing:0px;word-spacing:0px;fill:#000000;fill-opacity:1;stroke:none"
         transform="matrix(0.26458333,0,0,0.26458333,-407.69023,-8.3492915)"><flowRegion
           id="flowRegion1622"><rect
             id="rect1624"
             width="1458.6603"
             height="874.79211"
             x="125.25892"
             y="334.29877" /></flowRegion><flowPara
           id="flowPara1626"></flowPara></flowRoot>    </g>
  </g>
</svg>
